<?xml version="1.0" standalone="no"?>
<!DOCTYPE svg PUBLIC "-//W3C//DTD SVG 20010904//EN"
 "http://www.w3.org/TR/2001/REC-SVG-20010904/DTD/svg10.dtd">
<svg version="1.0" xmlns="http://www.w3.org/2000/svg"
 width="200.000000pt" height="200.000000pt" viewBox="0 0 200.000000 200.000000"
 preserveAspectRatio="xMidYMid meet">

<g transform="translate(0.000000,200.000000) scale(0.100000,-0.100000)"
fill="#000000" stroke="none">
<path d="M506 1150 c-14 -4 -16 -9 -8 -14 16 -10 16 -158 0 -174 -9 -9 -4 -12
22 -12 26 0 31 3 22 12 -14 14 -16 48 -4 48 5 0 19 -11 31 -24 17 -18 19 -25
9 -29 -7 -3 18 -6 57 -6 54 -1 66 2 57 11 -7 7 -12 35 -12 64 0 48 -2 52 -21
47 -13 -4 -17 -8 -9 -13 6 -4 10 -25 8 -51 -4 -58 -27 -63 -69 -16 -17 20 -37
33 -45 30 -10 -4 -14 12 -16 65 -3 63 -5 69 -22 62z"/>
<path d="M1196 1150 c-14 -4 -16 -9 -8 -14 15 -9 16 -140 2 -167 -10 -17 -7
-19 22 -19 19 0 28 4 21 8 -8 5 -13 42 -15 103 -3 90 -4 96 -22 89z"/>
<path d="M323 1139 c25 -15 25 -163 0 -178 -13 -8 5 -10 70 -11 69 0 87 3 87
14 0 8 3 23 7 33 4 11 -3 7 -16 -9 -24 -30 -67 -38 -89 -16 -16 16 -16 78 1
78 7 0 18 -5 25 -12 9 -9 12 -6 12 17 0 23 -3 26 -12 17 -24 -24 -38 -13 -38
28 0 39 1 40 34 40 19 0 42 -7 50 -16 15 -14 16 -14 16 5 0 20 -6 21 -82 21
-61 -1 -78 -3 -65 -11z"/>
<path d="M660 1135 c0 -8 5 -15 10 -15 6 0 10 7 10 15 0 8 -4 15 -10 15 -5 0
-10 -7 -10 -15z"/>
<path d="M1020 1130 c16 -16 20 -33 20 -80 0 -47 -4 -64 -20 -80 l-20 -20 46
0 c41 0 44 1 30 16 -9 8 -16 31 -16 50 0 31 2 34 31 34 43 0 69 17 69 45 0 41
-25 55 -96 55 l-64 0 20 -20z m94 4 c21 -8 21 -60 0 -68 -41 -16 -54 -7 -54
34 0 41 13 50 54 34z"/>
<path d="M732 1082 c-20 -3 -21 -5 -6 -19 21 -22 16 -149 -6 -163 -11 -7 -4
-10 24 -10 32 0 36 2 27 14 -7 9 -11 46 -10 95 1 45 0 83 -2 84 -2 2 -14 1
-27 -1z"/>
<path d="M567 1069 c8 -8 16 -8 30 0 16 9 14 10 -11 11 -22 0 -27 -3 -19 -11z"/>
<path d="M797 1070 c42 -17 42 -93 0 -110 -21 -8 -21 -9 -2 -9 11 0 25 3 31 7
15 10 34 47 34 66 0 24 -37 56 -62 55 l-23 0 22 -9z"/>
<path d="M893 1073 c-15 -5 -18 -33 -4 -33 5 0 11 7 15 15 3 8 12 15 21 15 13
0 15 -10 13 -52 -2 -39 -7 -53 -18 -53 -9 0 -15 9 -14 23 1 28 -20 23 -24 -6
-4 -27 23 -40 49 -24 11 7 20 8 24 2 3 -6 14 -10 23 -9 11 0 12 3 5 6 -8 3
-13 24 -13 53 0 39 -4 52 -19 60 -21 11 -38 12 -58 3z"/>
<path d="M1248 1071 c8 -4 17 -33 20 -62 6 -48 10 -54 32 -57 22 -2 23 -1 8 8
-14 8 -18 24 -18 65 0 53 -1 55 -27 55 -20 0 -24 -3 -15 -9z"/>
<path d="M1340 1065 c7 -8 10 -34 8 -62 -3 -45 -1 -48 22 -51 20 -3 23 -1 13
9 -7 7 -13 37 -13 66 0 47 -2 53 -21 53 -18 0 -19 -3 -9 -15z"/>
<path d="M1422 1068 c-19 -19 -15 -31 20 -60 27 -22 31 -29 20 -40 -10 -10
-16 -10 -32 0 -17 10 -20 10 -20 -3 0 -20 53 -20 70 0 16 20 5 50 -25 63 -34
16 -34 46 0 40 14 -3 25 -1 25 3 0 13 -44 11 -58 -3z"/>
</g>
</svg>
